<svg width="18" height="18" viewBox="0 0 18 18" fill="none" xmlns="http://www.w3.org/2000/svg">
<path d="M7.38 4.59003C7.38 3.86021 7.16359 3.14679 6.75812 2.53997C6.35266 1.93315 5.77636 1.4602 5.1021 1.18091C4.42784 0.901623 3.68591 0.828549 2.97012 0.970928C2.25433 1.11331 1.59683 1.46475 1.08078 1.9808C0.564722 2.49686 0.213283 3.15435 0.070904 3.87014C-0.0714755 4.58593 0.00159878 5.32787 0.280886 6.00213C0.560173 6.67639 1.03313 7.25269 1.63995 7.65815C2.24676 8.06361 2.96019 8.28003 3.69 8.28003C4.6108 8.2777 5.49708 7.92933 6.173 7.30403L8 8.99103L8.012 9.00003L8.008 9.00303L6.172 10.696C5.4966 10.0705 4.61055 9.72211 3.69 9.72003C2.96019 9.72003 2.24676 9.93644 1.63995 10.3419C1.03313 10.7474 0.560173 11.3237 0.280886 11.9979C0.00159878 12.6722 -0.0714755 13.4141 0.070904 14.1299C0.213283 14.8457 0.564722 15.5032 1.08078 16.0192C1.59683 16.5353 2.25433 16.8867 2.97012 17.0291C3.68591 17.1715 4.42784 17.0984 5.1021 16.8191C5.77636 16.5399 6.35266 16.0669 6.75812 15.4601C7.16359 14.8533 7.38 14.1398 7.38 13.41C7.38 13.113 7.336 12.828 7.269 12.552L10.113 10.561L14.24 13.626C16.452 15.175 18 12.963 18 12.963L7.269 5.44803C7.335 5.17203 7.38 4.88703 7.38 4.59003ZM3.69 6.39003C3.45362 6.39003 3.21956 6.34347 3.00117 6.25301C2.78278 6.16255 2.58435 6.02996 2.41721 5.86282C2.25006 5.69567 2.11748 5.49724 2.02702 5.27886C1.93656 5.06047 1.89 4.82641 1.89 4.59003C1.89 4.35365 1.93656 4.11958 2.02702 3.9012C2.11748 3.68281 2.25006 3.48438 2.41721 3.31723C2.58435 3.15009 2.78278 3.0175 3.00117 2.92704C3.21956 2.83658 3.45362 2.79003 3.69 2.79003C4.16739 2.79003 4.62523 2.97967 4.96279 3.31723C5.30036 3.6548 5.49 4.11264 5.49 4.59003C5.49 5.06742 5.30036 5.52525 4.96279 5.86282C4.62523 6.20038 4.16739 6.39003 3.69 6.39003ZM3.69 15.21C3.21261 15.21 2.75477 15.0204 2.41721 14.6828C2.07964 14.3453 1.89 13.8874 1.89 13.41C1.89 12.9326 2.07964 12.4748 2.41721 12.1372C2.75477 11.7997 3.21261 11.61 3.69 11.61C4.16739 11.61 4.62523 11.7997 4.96279 12.1372C5.30036 12.4748 5.49 12.9326 5.49 13.41C5.49 13.8874 5.30036 14.3453 4.96279 14.6828C4.62523 15.0204 4.16739 15.21 3.69 15.21ZM18 5.03803C18 5.03803 16.452 2.82603 14.24 4.37503L11.035 6.61003L13.389 8.25803L18 5.03803Z" fill="#FFF646"/>
</svg>
