<svg width="18" height="18" viewBox="0 0 18 18" fill="none" xmlns="http://www.w3.org/2000/svg">
<path fill-rule="evenodd" clip-rule="evenodd" d="M0.666992 9.00002V5.66669C0.666992 3.31002 0.666992 2.13085 1.39949 1.39919C2.13116 0.666687 3.31033 0.666687 5.66699 0.666687H12.3337C14.6903 0.666687 15.8695 0.666687 16.6012 1.39919C17.3337 2.13085 17.3337 3.31002 17.3337 5.66669V9.00002C17.3337 11.3567 17.3337 12.5359 16.6012 13.2675C16.0628 13.8067 15.2828 13.9492 13.9695 13.9867C13.9667 13.3553 13.7403 12.7453 13.3303 12.265C13.3063 12.2369 13.2917 12.2019 13.2887 12.165C13.2382 11.5311 12.9635 10.9359 12.5139 10.4862C12.0643 10.0364 11.4692 9.76154 10.8353 9.71085C10.7984 9.70789 10.7634 9.6933 10.7353 9.66919C10.2513 9.25675 9.63622 9.03021 9.00033 9.03021C8.36443 9.03021 7.74933 9.25675 7.26533 9.66919C7.23724 9.6933 7.20223 9.70789 7.16533 9.71085C6.53127 9.76135 5.93597 10.0361 5.4862 10.4859C5.03644 10.9357 4.76166 11.531 4.71116 12.165C4.7082 12.2019 4.69361 12.2369 4.66949 12.265C4.25986 12.7454 4.0337 13.3554 4.03116 13.9867C2.71783 13.9492 1.93783 13.8067 1.39949 13.2675C0.666992 12.5359 0.666992 11.3567 0.666992 9.00002ZM5.87533 4.00002C5.87533 3.83426 5.94117 3.67529 6.05838 3.55808C6.17559 3.44087 6.33457 3.37502 6.50033 3.37502H11.5003C11.6661 3.37502 11.8251 3.44087 11.9423 3.55808C12.0595 3.67529 12.1253 3.83426 12.1253 4.00002C12.1253 4.16578 12.0595 4.32475 11.9423 4.44196C11.8251 4.55917 11.6661 4.62502 11.5003 4.62502H6.50033C6.33457 4.62502 6.17559 4.55917 6.05838 4.44196C5.94117 4.32475 5.87533 4.16578 5.87533 4.00002ZM4.83366 6.29169C4.6679 6.29169 4.50893 6.35754 4.39172 6.47475C4.27451 6.59196 4.20866 6.75093 4.20866 6.91669C4.20866 7.08245 4.27451 7.24142 4.39172 7.35863C4.50893 7.47584 4.6679 7.54169 4.83366 7.54169H13.167C13.3328 7.54169 13.4917 7.47584 13.6089 7.35863C13.7261 7.24142 13.792 7.08245 13.792 6.91669C13.792 6.75093 13.7261 6.59196 13.6089 6.47475C13.4917 6.35754 13.3328 6.29169 13.167 6.29169H4.83366Z" fill="#FFF646"/>
<path fill-rule="evenodd" clip-rule="evenodd" d="M9.92573 10.6209C9.66779 10.4008 9.33982 10.2798 9.00073 10.2798C8.66164 10.2798 8.33367 10.4008 8.07573 10.6209C7.84752 10.8153 7.56378 10.9328 7.2649 10.9567C6.92695 10.9836 6.60967 11.1301 6.37003 11.3699C6.13039 11.6097 5.98408 11.9271 5.9574 12.265C5.93407 12.5634 5.81573 12.8467 5.62157 13.0759C5.4019 13.3337 5.28125 13.6613 5.28125 14C5.28125 14.3387 5.4019 14.6664 5.62157 14.9242C5.81657 15.1525 5.93407 15.4367 5.9574 15.735C5.98411 16.0731 6.13053 16.3906 6.37034 16.6304C6.61016 16.8702 6.92764 17.0167 7.26573 17.0434C7.56407 17.0667 7.84823 17.1842 8.07657 17.3784C8.33439 17.598 8.66202 17.7187 9.00073 17.7187C9.33944 17.7187 9.66708 17.598 9.9249 17.3784C10.1531 17.1839 10.4369 17.0664 10.7357 17.0425C11.0737 17.0159 11.3911 16.8696 11.6309 16.6299C11.8707 16.3903 12.0172 16.073 12.0441 15.735C12.0677 15.4363 12.1849 15.1525 12.3791 14.9242C12.599 14.6663 12.7197 14.3385 12.7197 13.9996C12.7197 13.6607 12.599 13.3329 12.3791 13.075C12.1846 12.8468 12.0671 12.5631 12.0432 12.2642C12.0164 11.9264 11.87 11.6092 11.6303 11.3696C11.3907 11.13 11.0735 10.9836 10.7357 10.9567C10.4369 10.9328 10.1539 10.8153 9.92573 10.6209ZM10.6774 13.6234C10.7383 13.5676 10.7875 13.5003 10.8222 13.4253C10.8569 13.3504 10.8765 13.2693 10.8797 13.1868C10.8829 13.1043 10.8697 13.022 10.8409 12.9446C10.8121 12.8672 10.7682 12.7963 10.7118 12.7359C10.6554 12.6756 10.5877 12.627 10.5124 12.593C10.4371 12.559 10.3559 12.5403 10.2733 12.5379C10.1908 12.5355 10.1086 12.5494 10.0315 12.579C9.95436 12.6085 9.88386 12.6531 9.82407 12.71L8.46573 13.9784L8.1774 13.71C8.05596 13.5987 7.8955 13.5399 7.73091 13.5463C7.56631 13.5527 7.41089 13.6238 7.29844 13.7441C7.18598 13.8645 7.12559 14.0244 7.13039 14.189C7.13519 14.3537 7.20479 14.5098 7.32407 14.6234L8.03823 15.29C8.15399 15.3982 8.30649 15.4583 8.4649 15.4583C8.62331 15.4583 8.77581 15.3982 8.89157 15.29L10.6774 13.6234Z" fill="#FFF646"/>
</svg>
