<svg width="20" height="27" viewBox="0 0 20 27" fill="none" xmlns="http://www.w3.org/2000/svg">
<path d="M8.65 13.9375L10 12.9125L11.3375 13.925C11.825 14.2875 12.4875 13.825 12.3125 13.2375L11.7875 11.5375L13.2875 10.35C13.75 10 13.4875 9.25 12.8875 9.25H11.1375L10.6 7.575C10.5589 7.44996 10.4794 7.34108 10.3728 7.2639C10.2661 7.18671 10.1379 7.14516 10.0062 7.14516C9.87463 7.14516 9.74636 7.18671 9.63974 7.2639C9.53313 7.34108 9.4536 7.44996 9.4125 7.575L8.8625 9.25H7.1C6.5125 9.25 6.25 10 6.7125 10.3625L8.2 11.55L7.675 13.25C7.5 13.8375 8.1625 14.3 8.65 13.9375ZM2.5 25.0125C2.5 25.8625 3.3375 26.4625 4.15 26.2L10 24.25L15.85 26.2C16.0383 26.2642 16.2392 26.2824 16.436 26.2532C16.6328 26.2239 16.8198 26.148 16.9812 26.0318C17.1427 25.9155 17.2741 25.7624 17.3643 25.5851C17.4545 25.4078 17.5011 25.2115 17.5 25.0125V17.1C19.1118 15.2794 20.0011 12.9316 20 10.5C20 4.975 15.525 0.5 10 0.5C4.475 0.5 0 4.975 0 10.5C0 13.0375 0.95 15.3375 2.5 17.1V25.0125ZM10 3C14.1375 3 17.5 6.3625 17.5 10.5C17.5 14.6375 14.1375 18 10 18C5.8625 18 2.5 14.6375 2.5 10.5C2.5 6.3625 5.8625 3 10 3Z" fill="#FFF646"/>
</svg>
